<svg width="20" height="20" viewBox="0 0 20 20" fill="none" xmlns="http://www.w3.org/2000/svg">
<path fill-rule="evenodd" clip-rule="evenodd" d="M10 2.39599C8.61525 2.39599 7.46168 3.43848 7.34668 4.7938L7.21319 6.36709C7.17671 6.79706 6.79223 7.11659 6.35443 7.08075C5.91663 7.04492 5.59131 6.6673 5.62779 6.23733L5.76128 4.66405C5.94499 2.4989 7.78785 0.833496 10 0.833496C12.2122 0.833496 14.055 2.4989 14.2388 4.66405L14.3722 6.23733C14.4087 6.6673 14.0833 7.04492 13.6456 7.08075C13.2078 7.11659 12.8233 6.79706 12.7868 6.36709L12.6533 4.7938C12.5383 3.43848 11.3848 2.39599 10 2.39599Z" fill="#141B34"/>
<path fill-rule="evenodd" clip-rule="evenodd" d="M12.1507 5.8335H7.84668C6.85874 5.83348 6.05867 5.83347 5.419 5.91387C4.75254 5.99765 4.18529 6.17606 3.7021 6.58576C3.21976 6.99475 2.9481 7.52665 2.75045 8.17332C2.56025 8.79558 2.41983 9.59208 2.24598 10.5781L1.92592 12.3934C1.68433 13.7633 1.4914 14.8575 1.46123 15.7231C1.43012 16.6155 1.56549 17.3808 2.08809 18.013C2.612 18.6467 3.33609 18.9181 4.21312 19.0446C5.06144 19.1668 6.16026 19.1668 7.53296 19.1668H12.4645C13.8371 19.1668 14.936 19.1668 15.7843 19.0446C16.6613 18.9181 17.3854 18.6467 17.9093 18.013C18.4319 17.3808 18.5673 16.6155 18.5361 15.7231C18.506 14.8575 18.313 13.7634 18.0715 12.3934L17.7514 10.5781C17.5775 9.59208 17.4371 8.79558 17.247 8.17332C17.0493 7.52665 16.7776 6.99475 16.2953 6.58576C15.8121 6.17606 15.2449 5.99765 14.5784 5.91387C13.9387 5.83347 13.1387 5.83348 12.1507 5.8335ZM11.6688 8.88216C11.606 9.5655 10.9417 10.2085 9.99862 10.2085C9.05562 10.2085 8.39137 9.5655 8.32848 8.88216C8.2863 8.42383 7.88059 8.0865 7.42229 8.12867C6.96399 8.17084 6.62665 8.57658 6.66882 9.03483C6.82265 10.7067 8.33228 11.8752 9.99862 11.8752C11.665 11.8752 13.1746 10.7067 13.3285 9.03483C13.3706 8.57658 13.0333 8.17084 12.575 8.12867C12.1167 8.0865 11.711 8.42383 11.6688 8.88216Z" fill="#141B34"/>
</svg>
