<svg width="20" height="20" viewBox="0 0 20 20" fill="none" xmlns="http://www.w3.org/2000/svg">
<path d="M2.55006 12.6609L2.85443 10.9348C3.21416 8.8945 3.39403 7.87444 4.10631 7.27047C4.81861 6.6665 5.84179 6.6665 7.88815 6.6665H12.1093C14.1556 6.6665 15.1788 6.6665 15.8911 7.27047C16.6034 7.87444 16.7832 8.8945 17.1429 10.9348L17.4474 12.6609C17.9451 15.4841 18.194 16.8957 17.4276 17.8228C16.6612 18.7498 15.2453 18.7498 12.4136 18.7498H7.58378C4.75208 18.7498 3.33623 18.7498 2.56981 17.8228C1.80338 16.8957 2.05228 15.4841 2.55006 12.6609Z" stroke="#141B34" stroke-width="1.25"/>
<path d="M6.25 6.6665L6.38985 4.98832C6.54632 3.11072 8.11589 1.6665 10 1.6665C11.8841 1.6665 13.4537 3.11072 13.6102 4.98832L13.75 6.6665" stroke="#141B34" stroke-width="1.25"/>
<path d="M12.5 9.1665C12.3917 10.3441 11.3047 11.2498 10 11.2498C8.69525 11.2498 7.60835 10.3441 7.5 9.1665" stroke="#141B34" stroke-width="1.25" stroke-linecap="round"/>
</svg>
