<svg width="20" height="20" viewBox="0 0 20 20" fill="none" xmlns="http://www.w3.org/2000/svg">
<path d="M9.58464 6.6665H16.8313C17.352 6.6665 17.6123 6.6665 17.8029 6.75054C18.646 7.12225 18.2691 8.0588 18.1272 8.73184C18.1017 8.85275 18.0188 8.95567 17.9026 9.01084C17.4207 9.2395 17.0831 9.67325 16.9946 10.1777L16.5007 12.9897C16.2835 14.2269 16.2092 15.9951 15.125 16.8667C14.3295 17.4998 13.1833 17.4998 10.8909 17.4998H9.11172C6.81932 17.4998 5.67314 17.4998 4.87764 16.8667C3.7934 15.995 3.71912 14.2269 3.50185 12.9897L3.00803 10.1777C2.91945 9.67325 2.58191 9.2395 2.09998 9.01084C1.98377 8.95567 1.9009 8.85275 1.87542 8.73184C1.73359 8.0588 1.35664 7.12225 2.19974 6.75054C2.39034 6.6665 2.65065 6.6665 3.17128 6.6665H6.2513" stroke="#141B34" stroke-width="1.25" stroke-linecap="round"/>
<path d="M11.6654 10H8.33203" stroke="#141B34" stroke-width="1.25" stroke-linecap="round" stroke-linejoin="round"/>
<path d="M5.41797 9.16667L8.33464 2.5M12.5013 2.5L14.5846 6.66667" stroke="#141B34" stroke-width="1.25" stroke-linecap="round"/>
</svg>
