<svg width="20" height="20" viewBox="0 0 20 20" fill="none" xmlns="http://www.w3.org/2000/svg">
<path fill-rule="evenodd" clip-rule="evenodd" d="M12.1286 1.85916C12.5403 1.65333 13.0408 1.82018 13.2466 2.23183L15.2037 6.146H16.8511C17.0945 6.14599 17.308 6.14598 17.4834 6.15795C17.6667 6.17046 17.863 6.19847 18.055 6.28315C18.3781 6.42561 18.6253 6.64382 18.7796 6.9307C18.9281 7.20667 18.9637 7.49623 18.9593 7.74396C18.9548 7.99006 18.9097 8.23069 18.8648 8.43152C18.8374 8.55402 18.7387 8.96518 18.7387 8.96518C18.6711 9.28602 18.4546 9.54518 18.1706 9.68002C17.8626 9.8261 17.662 10.095 17.6101 10.3903L17.0271 13.7757C16.9566 14.255 16.874 14.8168 16.7433 15.3253C16.5496 16.0793 16.215 16.8969 15.5166 17.4583L15.5141 17.4602C14.9896 17.8778 14.3745 18.0598 13.6423 18.1459C12.9332 18.2293 12.0431 18.2294 10.9306 18.2294H9.07197C7.9595 18.2294 7.0694 18.2293 6.36029 18.1459C5.6281 18.0598 5.01305 17.8778 4.48843 17.4602L4.48603 17.4583C3.78765 16.8969 3.45298 16.0793 3.25929 15.3253C3.12866 14.8168 3.04598 14.255 2.97544 13.7758L2.39245 10.3903C2.3406 10.095 2.13996 9.8261 1.83204 9.68002C1.54798 9.54518 1.33145 9.28602 1.26385 8.96518C1.26385 8.96518 1.16518 8.55402 1.13777 8.43152C1.09285 8.23069 1.04777 7.99006 1.04333 7.74396C1.03886 7.49623 1.07457 7.20667 1.22301 6.9307C1.37734 6.64382 1.62448 6.42561 1.9476 6.28315C2.13966 6.19847 2.33586 6.17046 2.51921 6.15795C2.69467 6.14598 2.90807 6.14599 3.15139 6.146H5.87568L7.5712 2.27052C7.75567 1.84887 8.24703 1.65661 8.66872 1.84107C9.0903 2.02555 9.28264 2.51691 9.09814 2.93856L7.69487 6.146H13.3404L11.756 2.97719C11.5501 2.56554 11.717 2.06498 12.1286 1.85916ZM7.70964 10.1043C7.70964 9.75918 7.98946 9.47935 8.33464 9.47935H11.668C12.0131 9.47935 12.293 9.75918 12.293 10.1043C12.293 10.4495 12.0131 10.7293 11.668 10.7293H8.33464C7.98946 10.7293 7.70964 10.4495 7.70964 10.1043Z" fill="#141B34"/>
</svg>
