<svg width="20" height="20" viewBox="0 0 20 20" fill="none" xmlns="http://www.w3.org/2000/svg">
<path fill-rule="evenodd" clip-rule="evenodd" d="M0.832031 1.66683C0.832031 1.2066 1.20513 0.833496 1.66536 0.833496H2.47036C3.62293 0.833496 4.65242 1.59714 4.94179 2.72159L5.31371 4.16683H17.4864L17.4964 4.16675L17.509 4.16683H18.332C18.7923 4.16683 19.1654 4.53993 19.1654 5.00016C19.1654 5.4604 18.7923 5.8335 18.332 5.8335H18.2446L17.7965 9.86625C17.6715 10.9916 17.4677 11.9679 16.7894 12.6277C16.1113 13.2875 15.1297 13.4643 14.0014 13.5584L7.20975 14.1243C7.14442 14.2472 7.06835 14.3653 6.98186 14.4774L6.70336 14.8381C6.99464 15.1097 7.22096 15.4502 7.35644 15.8335H11.8076C12.1508 14.8625 13.0769 14.1668 14.1654 14.1668C15.5461 14.1668 16.6654 15.2861 16.6654 16.6668C16.6654 18.0476 15.5461 19.1668 14.1654 19.1668C13.0769 19.1668 12.1508 18.4712 11.8076 17.5002H7.35644C7.01325 18.4712 6.08721 19.1668 4.9987 19.1668C3.61799 19.1668 2.4987 18.0476 2.4987 16.6668C2.4987 15.2861 3.61799 14.1668 4.9987 14.1668C5.03736 14.1668 5.07581 14.1677 5.11403 14.1694L5.6626 13.4589C5.81714 13.2587 5.86766 13.007 5.80709 12.7716L3.32771 3.13695C3.23521 2.77751 2.89227 2.50016 2.47036 2.50016H1.66536C1.20513 2.50016 0.832031 2.12706 0.832031 1.66683ZM4.9987 15.8335C4.53846 15.8335 4.16536 16.2066 4.16536 16.6668C4.16536 17.1271 4.53846 17.5002 4.9987 17.5002C5.45893 17.5002 5.83203 17.1271 5.83203 16.6668C5.83203 16.2066 5.45893 15.8335 4.9987 15.8335ZM13.332 16.6668C13.332 17.1271 13.7051 17.5002 14.1654 17.5002C14.6256 17.5002 14.9987 17.1271 14.9987 16.6668C14.9987 16.2066 14.6256 15.8335 14.1654 15.8335C13.7051 15.8335 13.332 16.2066 13.332 16.6668Z" fill="#141B34"/>
</svg>
