<svg width="20" height="20" viewBox="0 0 20 20" fill="none" xmlns="http://www.w3.org/2000/svg">
<path d="M3.77822 5.625L3.82006 5.62501L16.2192 5.625C16.6294 5.62495 17.003 5.62491 17.3022 5.66865C17.631 5.71672 17.9814 5.83171 18.2425 6.15047C18.5006 6.46574 18.5488 6.83097 18.5393 7.16305C18.5304 7.46985 18.4674 7.84531 18.3974 8.26325L17.381 14.3258C17.2205 15.2836 17.0906 16.0584 16.912 16.6642C16.7263 17.2935 16.468 17.8151 16.0032 18.2178C15.5365 18.6221 14.9874 18.7977 14.3459 18.8798C13.7321 18.9583 12.965 18.9583 12.0224 18.9583H7.97494C7.03232 18.9583 6.26529 18.9583 5.65155 18.8798C5.01004 18.7977 4.46082 18.6221 3.99416 18.2178C3.52938 17.8151 3.27113 17.2935 3.08547 16.6642C2.90677 16.0584 2.77691 15.2837 2.61637 14.3259L1.60673 8.30319L1.60004 8.26328C1.52993 7.84533 1.46696 7.46985 1.45814 7.16305C1.4486 6.83097 1.49673 6.46574 1.75494 6.15046C2.016 5.83171 2.36632 5.71672 2.69521 5.66865C2.99433 5.62491 3.36805 5.62495 3.77822 5.625Z" fill="#141B34"/>
<path fill-rule="evenodd" clip-rule="evenodd" d="M10 2.70817C8.15905 2.70817 6.66667 4.20055 6.66667 6.0415V6.45817C6.66667 6.9184 6.29357 7.2915 5.83333 7.2915C5.3731 7.2915 5 6.9184 5 6.45817V6.0415C5 3.28008 7.23857 1.0415 10 1.0415C12.7614 1.0415 15 3.28008 15 6.0415V6.45817C15 6.9184 14.6269 7.2915 14.1667 7.2915C13.7064 7.2915 13.3333 6.9184 13.3333 6.45817V6.0415C13.3333 4.20055 11.8409 2.70817 10 2.70817Z" fill="#141B34"/>
</svg>
