<svg width="20" height="20" viewBox="0 0 20 20" fill="none" xmlns="http://www.w3.org/2000/svg">
<path d="M3.22611 14.1828L2.22314 8.19984C2.07149 7.29523 1.99567 6.84293 2.23847 6.54647C2.48128 6.25 2.92754 6.25 3.82006 6.25H16.1774C17.0699 6.25 17.5161 6.25 17.7589 6.54647C18.0017 6.84293 17.9259 7.29523 17.7743 8.19984L16.7713 14.1828C16.4389 16.1659 16.2726 17.1574 15.5939 17.7454C14.9154 18.3333 13.937 18.3333 11.9805 18.3333H8.01688C6.06033 18.3333 5.08206 18.3333 4.40341 17.7454C3.72476 17.1574 3.55854 16.1659 3.22611 14.1828Z" stroke="#141B34" stroke-width="1.5"/>
<path d="M14.5846 6.24984C14.5846 3.71853 12.5326 1.6665 10.0013 1.6665C7.46999 1.6665 5.41797 3.71853 5.41797 6.24984" stroke="#141B34" stroke-width="1.5"/>
</svg>
