<svg width="20" height="20" viewBox="0 0 20 20" fill="none" xmlns="http://www.w3.org/2000/svg">
<path fill-rule="evenodd" clip-rule="evenodd" d="M4.21033 2.948C3.98955 2.91842 3.68464 2.91668 3.16763 2.91668H2.08333C1.6231 2.91668 1.25 2.54358 1.25 2.08334C1.25 1.6231 1.6231 1.25001 2.08333 1.25001H3.16763C3.18368 1.25001 3.19968 1.25001 3.21564 1.25C3.66821 1.24995 4.08681 1.24989 4.43159 1.29608C4.81582 1.34754 5.21074 1.46724 5.55009 1.78086C5.88433 2.08974 6.04048 2.47243 6.13483 2.84863C6.22168 3.19499 6.276 3.62531 6.33636 4.10346C6.33825 4.11843 6.34014 4.13345 6.34204 4.1485L7.28153 11.5861C7.37119 12.2959 7.43047 12.7539 7.51476 13.09C7.59427 13.4071 7.67157 13.5064 7.72807 13.5587C7.77947 13.6062 7.86807 13.667 8.15783 13.7058C8.47492 13.7483 8.90333 13.75 9.585 13.75H17.9167C18.3769 13.75 18.75 14.1231 18.75 14.5833C18.75 15.0436 18.3769 15.4167 17.9167 15.4167H9.53325C8.91892 15.4168 8.37742 15.4168 7.93657 15.3578C7.45606 15.2933 6.99206 15.1478 6.59689 14.7827C6.20682 14.4222 6.01732 13.9707 5.89814 13.4954C5.78649 13.0502 5.7159 12.4911 5.63408 11.8432L4.68852 4.35737C4.62062 3.81984 4.57766 3.49107 4.51822 3.25404C4.46478 3.04094 4.42158 3.00698 4.41903 3.00496C4.41897 3.00491 4.41904 3.00498 4.41903 3.00496C4.41458 3.00085 4.40898 2.99575 4.38883 2.98769C4.36307 2.97738 4.31073 2.96144 4.21033 2.948Z" fill="#141B34"/>
<path d="M8.33203 17.0832C8.33203 16.1627 9.0782 15.4165 9.9987 15.4165C10.9192 15.4165 11.6654 16.1627 11.6654 17.0832C11.6654 18.0037 10.9192 18.7498 9.9987 18.7498C9.0782 18.7498 8.33203 18.0037 8.33203 17.0832Z" fill="#141B34"/>
<path d="M14.168 17.0832C14.168 16.1627 14.9141 15.4165 15.8346 15.4165C16.7551 15.4165 17.5013 16.1627 17.5013 17.0832C17.5013 18.0037 16.7551 18.7498 15.8346 18.7498C14.9141 18.7498 14.168 18.0037 14.168 17.0832Z" fill="#141B34"/>
<path fill-rule="evenodd" clip-rule="evenodd" d="M16.7051 3.4001C16.2094 3.33345 15.5851 3.33348 14.8363 3.3335H13.083C12.3342 3.33348 11.7099 3.33345 11.2142 3.4001C10.6911 3.47043 10.2187 3.62515 9.83922 4.00471C9.45964 4.38427 9.30489 4.85661 9.23455 5.37977C9.16797 5.87541 9.16797 6.49974 9.16797 7.24845V9.00184C9.16797 9.7505 9.16797 10.3749 9.23455 10.8706C9.30489 11.3938 9.45964 11.8661 9.83922 12.2456C10.2187 12.6252 10.6911 12.7799 11.2142 12.8503C11.7099 12.9168 12.3342 12.9168 13.083 12.9168H14.8363C15.585 12.9168 16.2094 12.9168 16.7051 12.8503C17.2282 12.7799 17.7006 12.6252 18.0801 12.2456C18.4596 11.8661 18.6144 11.3938 18.6847 10.8706C18.7514 10.3749 18.7513 9.75059 18.7513 9.00184V7.2485C18.7513 6.49978 18.7514 5.87541 18.6847 5.37977C18.6144 4.85661 18.4596 4.38427 18.0801 4.00471C17.7006 3.62515 17.2282 3.47043 16.7051 3.4001ZM13.1263 5.00016C12.7811 5.00016 12.5013 5.27999 12.5013 5.62516C12.5013 5.97035 12.7811 6.25016 13.1263 6.25016H14.793C15.1381 6.25016 15.418 5.97035 15.418 5.62516C15.418 5.27999 15.1381 5.00016 14.793 5.00016H13.1263Z" fill="#141B34"/>
</svg>
