<svg width="20" height="20" viewBox="0 0 20 20" fill="none" xmlns="http://www.w3.org/2000/svg">
<path d="M2.5 1.6665H3.5843C4.57227 1.6665 5.06625 1.6665 5.40117 1.97602C5.73609 2.28555 5.80137 2.8024 5.93195 3.8361L6.87144 11.2738C7.04553 12.652 7.13258 13.3411 7.57914 13.7538C8.02571 14.1665 8.68433 14.1665 10.0017 14.1665H18.3333" stroke="#141B34" stroke-width="1.25" stroke-linecap="round"/>
<path d="M9.58203 17.5C10.2724 17.5 10.832 16.9404 10.832 16.25C10.832 15.5596 10.2724 15 9.58203 15C8.89168 15 8.33203 15.5596 8.33203 16.25C8.33203 16.9404 8.89168 17.5 9.58203 17.5Z" stroke="#141B34" stroke-width="1.25"/>
<path d="M15.418 17.5C16.1083 17.5 16.668 16.9404 16.668 16.25C16.668 15.5596 16.1083 15 15.418 15C14.7276 15 14.168 15.5596 14.168 16.25C14.168 16.9404 14.7276 17.5 15.418 17.5Z" stroke="#141B34" stroke-width="1.25"/>
<path d="M15 11.6668H13.3333C11.762 11.6668 10.9763 11.6668 10.4882 11.1787C10 10.6905 10 9.90483 10 8.3335V6.66683C10 5.09548 10 4.3098 10.4882 3.82165C10.9763 3.3335 11.762 3.3335 13.3333 3.3335H15C16.5713 3.3335 17.357 3.3335 17.8452 3.82165C18.3333 4.3098 18.3333 5.09548 18.3333 6.66683V8.3335C18.3333 9.90483 18.3333 10.6905 17.8452 11.1787C17.357 11.6668 16.5713 11.6668 15 11.6668Z" stroke="#141B34" stroke-width="1.25" stroke-linecap="round" stroke-linejoin="round"/>
<path d="M13.75 5.8335H14.5833" stroke="#141B34" stroke-width="1.25" stroke-linecap="round" stroke-linejoin="round"/>
</svg>
