<svg width="18" height="18" viewBox="0 0 18 18" fill="none" xmlns="http://www.w3.org/2000/svg">
<path d="M11.25 7.875C11.25 9.11768 10.2427 10.125 9 10.125C7.75732 10.125 6.75 9.11768 6.75 7.875C6.75 6.63236 7.75732 5.625 9 5.625C10.2427 5.625 11.25 6.63236 11.25 7.875Z" stroke="#414454" stroke-width="1.125"/>
<path d="M15.0101 9.30297C15.4046 9.18439 15.6018 9.12507 15.6759 9.02547C15.75 8.92587 15.75 8.76567 15.75 8.44534V7.30569C15.75 6.98535 15.75 6.82518 15.6759 6.72555C15.6018 6.62592 15.4046 6.56666 15.0101 6.44813C13.763 6.07338 12.9818 4.77986 13.262 3.52836C13.3544 3.11553 13.4006 2.90912 13.3503 2.79583C13.2999 2.68254 13.1593 2.60318 12.8781 2.44444L11.8463 1.86207C11.572 1.70721 11.4348 1.62978 11.3129 1.64439C11.1909 1.659 11.0433 1.79714 10.7481 2.07342C9.77618 2.98316 8.22487 2.98312 7.25293 2.07336C6.95779 1.79708 6.81021 1.65894 6.68824 1.64433C6.56627 1.62971 6.42909 1.70715 6.15472 1.86201L5.12298 2.44437C4.84177 2.6031 4.70117 2.68246 4.65081 2.79573C4.60044 2.90901 4.64662 3.11544 4.739 3.5283C5.01903 4.77985 4.23731 6.07342 2.98991 6.44814C2.59544 6.56664 2.3982 6.62589 2.3241 6.72552C2.25 6.82515 2.25 6.98533 2.25 7.30569V8.44534C2.25 8.76567 2.25 8.92587 2.32409 9.02547C2.39818 9.12514 2.59543 9.18439 2.98991 9.30289C4.23708 9.67767 5.01818 10.9712 4.73798 12.2227C4.64556 12.6355 4.59935 12.8419 4.64971 12.9552C4.70008 13.0685 4.84069 13.1478 5.12191 13.3066L6.15365 13.889C6.42804 14.0439 6.56523 14.1213 6.68722 14.1066C6.8092 14.092 6.95675 13.9539 7.25183 13.6776C8.22428 12.7671 9.77678 12.767 10.7492 13.6776C11.0444 13.9538 11.1919 14.0919 11.3138 14.1066C11.4359 14.1212 11.573 14.0438 11.8474 13.8889L12.8791 13.3065C13.1604 13.1478 13.301 13.0684 13.3513 12.9551C13.4017 12.8418 13.3555 12.6354 13.263 12.2226C12.9827 10.9712 13.7632 9.67767 15.0101 9.30297Z" stroke="#414454" stroke-width="1.125" stroke-linecap="round"/>
<path d="M16.5 13.5C16.5 14.1975 16.5 14.5463 16.4234 14.8324C16.2153 15.6088 15.6088 16.2153 14.8324 16.4234C14.5463 16.5 14.1975 16.5 13.5 16.5H4.5C3.80252 16.5 3.45378 16.5 3.16765 16.4234C2.3912 16.2153 1.78472 15.6088 1.57667 14.8324C1.5 14.5463 1.5 14.1975 1.5 13.5" stroke="#414454" stroke-width="1.125" stroke-linecap="round"/>
</svg>
