<svg width="40" height="40" viewBox="0 0 40 40" fill="none" xmlns="http://www.w3.org/2000/svg">
<path d="M5.66448 26.7283C4.8766 21.9041 6.15539 19.898 9.25842 16.3828C12.5372 12.6737 15.816 8.96466 19.0948 5.24951C20.9372 3.1586 23.8584 3.29799 26.3796 3.64345C28.2342 3.89799 30.0948 4.15254 31.9311 4.52223C33.3493 4.80708 35.319 5.03738 36.4342 6.06769C36.9433 6.54041 37.3372 7.14648 37.6281 7.8192C38.7736 10.4495 38.1796 13.5283 36.3493 15.7344C32.2342 20.698 27.9251 24.995 23.8827 30.2131C23.0887 31.2374 22.2705 32.2859 21.1675 32.9707C20.0645 33.6556 18.5978 33.9041 17.4766 33.2616" fill="#6B7280"/>
<path opacity="0.5" d="M37.6289 7.82544C37.3926 7.28604 37.0895 6.79513 36.7198 6.37695C36.5501 7.15271 36.1017 7.85574 35.3744 8.24968C36.2895 10.783 35.6653 13.6497 33.932 15.7406C29.8168 20.7042 25.5077 25.0012 21.4653 30.2194C20.6714 31.2436 19.8532 32.2921 18.7501 32.977C18.4592 33.1588 18.138 33.3042 17.8047 33.4194C18.8774 33.8557 20.1683 33.5951 21.1683 32.977C22.2714 32.2921 23.0895 31.2497 23.8835 30.2194C27.9259 25.0012 32.235 20.7042 36.3501 15.7406C38.1804 13.5345 38.7744 10.4557 37.6289 7.82544Z" fill="#1A1A1A"/>
<path d="M6.8273 27.0605C5.53033 28.5636 4.66367 29.4908 3.28185 30.9212C2.50609 31.7212 0.875789 33.1636 2.43943 34.109C4.46973 35.3454 6.86973 35.6545 9.11821 36.2181C11.1606 36.7272 13.5728 36.8787 15.0697 35.1151C16.6576 33.2484 17.8091 31.6242 19.397 29.7636L6.8273 27.0605Z" fill="#FEC41B"/>
<path d="M18.1741 31.3149C18.7741 30.5573 18.7134 30.5755 19.4044 29.7634L6.8286 27.0664C6.02254 27.9997 6.04072 27.9331 5.34375 28.6785L17.6407 31.3149H18.1741Z" fill="black" fill-opacity="0.0627451"/>
<path d="M23.6817 3.97656C21.8756 6.27353 20.0756 8.5705 18.2695 10.8675C22.3423 11.9584 23.021 12.0978 28.0453 12.625C30.5726 9.84929 31.6817 8.30384 34.1968 5.09777" fill="white"/>
<path d="M11.5667 21.6257C11.6669 21.1611 10.9815 20.6192 10.0359 20.4152C9.09035 20.2113 8.24256 20.4226 8.14236 20.8873C8.04217 21.3519 8.7275 21.8938 9.67309 22.0978C10.6187 22.3017 11.4665 22.0904 11.5667 21.6257Z" fill="white"/>
<path d="M16.2307 22.6257C16.3309 22.1611 15.6456 21.6192 14.7 21.4152C13.7544 21.2113 12.9066 21.4226 12.8064 21.8873C12.7062 22.3519 13.3916 22.8938 14.3372 23.0978C15.2827 23.3017 16.1305 23.0904 16.2307 22.6257Z" fill="white"/>
<path d="M20.8987 23.6277C20.9989 23.1631 20.3136 22.6211 19.368 22.4172C18.4224 22.2133 17.5746 22.4246 17.4744 22.8892C17.3742 23.3538 18.0595 23.8958 19.0051 24.0997C19.9507 24.3036 20.7985 24.0923 20.8987 23.6277Z" fill="white"/>
<path d="M14.2659 18.0515C14.3661 17.5869 13.6808 17.0449 12.7352 16.841C11.7896 16.6371 10.9418 16.8484 10.8416 17.313C10.7414 17.7776 11.4267 18.3196 12.3723 18.5235C13.3179 18.7275 14.1657 18.5161 14.2659 18.0515Z" fill="white"/>
<path d="M18.926 19.0593C19.0262 18.5947 18.3409 18.0527 17.3953 17.8488C16.4497 17.6449 15.6019 17.8562 15.5017 18.3208C15.4015 18.7855 16.0869 19.3274 17.0325 19.5314C17.9781 19.7353 18.8258 19.5239 18.926 19.0593Z" fill="white"/>
<path d="M23.594 20.0613C23.6942 19.5967 23.0089 19.0547 22.0633 18.8508C21.1177 18.6468 20.2699 18.8582 20.1697 19.3228C20.0695 19.7874 20.7548 20.3294 21.7004 20.5333C22.646 20.7372 23.4938 20.5259 23.594 20.0613Z" fill="white"/>
<path d="M16.8909 14.4812C16.9911 14.0166 16.3058 13.4746 15.3602 13.2707C14.4146 13.0668 13.5668 13.2781 13.4666 13.7427C13.3664 14.2073 14.0517 14.7493 14.9973 14.9532C15.9429 15.1572 16.7907 14.9458 16.8909 14.4812Z" fill="white"/>
<path d="M21.5589 15.4832C21.6591 15.0185 20.9737 14.4766 20.0281 14.2726C19.0825 14.0687 18.2348 14.2801 18.1346 14.7447C18.0344 15.2093 18.7197 15.7513 19.6653 15.9552C20.6109 16.1591 21.4587 15.9478 21.5589 15.4832Z" fill="white"/>
<path d="M26.2268 16.4851C26.327 16.0205 25.6417 15.4785 24.6961 15.2746C23.7505 15.0707 22.9027 15.282 22.8025 15.7466C22.7023 16.2112 23.3877 16.7532 24.3332 16.9571C25.2788 17.1611 26.1266 16.9497 26.2268 16.4851Z" fill="white"/>
<path d="M18.9455 34.0854C18.3758 34.0854 17.8 33.9581 17.2546 33.649C17.0425 33.5278 16.9697 33.2611 17.0909 33.049C17.2122 32.8369 17.4788 32.7642 17.6909 32.8854C18.5697 33.3884 19.8425 33.2793 20.9334 32.6005C21.9819 31.952 22.7697 30.9339 23.5334 29.952C25.8909 26.9036 28.3758 24.1339 30.7819 21.449C32.5091 19.5217 34.2909 17.5339 36.0122 15.4611C37.794 13.3157 38.2667 10.3884 37.2243 8.00053C36.9334 7.33992 36.5697 6.80053 36.1334 6.39447C35.2728 5.59447 33.7334 5.30962 32.4909 5.07932C32.2667 5.03689 32.0485 4.99447 31.8425 4.95811C30.0122 4.58841 28.1334 4.33386 26.3212 4.08538C23.7273 3.73386 21.0909 3.66114 19.4303 5.54598L9.59397 16.6733C6.52125 20.152 5.34549 22.0308 6.10307 26.6551C6.13943 26.8975 5.98185 27.1217 5.73943 27.1642C5.50307 27.2066 5.27276 27.043 5.23034 26.8005C4.41822 21.8187 5.73337 19.7157 8.93337 16.0914L18.7697 4.95811C20.7152 2.75811 23.7394 2.83689 26.4425 3.20659C28.2728 3.45507 30.1637 3.71568 32.0243 4.09144C32.2243 4.13386 32.4364 4.17023 32.6546 4.21265C34.0061 4.4672 35.6909 4.77629 36.7334 5.74598C37.2606 6.23689 37.697 6.87326 38.0364 7.64901C39.2061 10.3399 38.6788 13.6248 36.6909 16.0248C34.9637 18.1096 33.1697 20.1096 31.4425 22.043C29.0485 24.7157 26.5758 27.4733 24.2364 30.4975C23.4667 31.4975 22.5879 32.6248 21.4061 33.3581C20.7334 33.7642 19.8546 34.0854 18.9455 34.0854Z" fill="#1D222B"/>
<path d="M11.5678 36.9944C10.7981 36.9944 9.94358 36.8793 9.0163 36.6489C8.52539 36.5277 8.02842 36.4186 7.53145 36.3035C5.72539 35.9035 3.86479 35.4914 2.2163 34.4853C1.70721 34.1762 1.42236 33.7823 1.36176 33.3156C1.24661 32.3641 2.13145 31.4671 2.77994 30.8065L2.96782 30.6126C4.33145 29.2005 5.20418 28.2671 6.49509 26.7702C6.65267 26.5883 6.93145 26.5641 7.11933 26.7217C7.30115 26.8793 7.32539 27.158 7.16782 27.3459C5.86479 28.855 4.97994 29.8005 3.60418 31.2247L3.41024 31.4247C2.94964 31.8914 2.17388 32.6793 2.24054 33.2065C2.24661 33.2793 2.27691 33.4914 2.67691 33.7338C4.19812 34.6611 5.99206 35.055 7.72539 35.4429C8.23448 35.558 8.73751 35.6671 9.23448 35.7944C11.8405 36.4429 13.6405 36.1277 14.7436 34.8308C15.5315 33.9035 16.2284 33.0186 16.8951 32.1641C17.5739 31.3035 18.2708 30.4126 19.0708 29.4732C19.2284 29.2853 19.5072 29.2671 19.6951 29.4247C19.883 29.5823 19.9012 29.8611 19.7436 30.0489C18.9557 30.9762 18.2587 31.8611 17.5921 32.7156C16.9133 33.5762 16.2163 34.4671 15.4163 35.4065C14.5133 36.4611 13.2224 36.9944 11.5678 36.9944Z" fill="#1D222B"/>
<path d="M20.5978 30.436C20.512 30.4372 20.4264 30.427 20.3432 30.4057C19.4705 30.2299 18.4947 30.036 17.4584 29.836C13.5917 29.0784 8.78565 28.139 5.53717 27.1511C5.48185 27.134 5.43045 27.1062 5.38589 27.0692C5.34134 27.0322 5.3045 26.9868 5.27749 26.9356C5.25048 26.8844 5.23381 26.8284 5.22845 26.7707C5.2231 26.7131 5.22915 26.6549 5.24626 26.5996C5.26337 26.5443 5.29121 26.4929 5.32818 26.4483C5.36516 26.4038 5.41055 26.3669 5.46177 26.3399C5.56519 26.2854 5.68606 26.2741 5.79777 26.3087C9.00383 27.2784 13.7857 28.2178 17.6341 28.9693C18.6705 29.1754 19.6523 29.3632 20.525 29.5451C20.5372 29.5451 20.5493 29.5511 20.5614 29.5511C20.5735 29.5329 20.5917 29.5026 20.616 29.4663C20.719 29.2905 20.719 29.0117 20.725 28.7693L20.7372 25.8541C20.7372 25.5147 21.0766 25.0117 28.6826 15.8299C31.8887 11.9572 35.2038 7.95717 36.3008 6.47839C36.4463 6.28445 36.719 6.24202 36.919 6.38748C37.1129 6.53293 37.1553 6.80566 37.0099 7.00566C35.8947 8.50263 32.5735 12.5147 29.3614 16.3996C25.919 20.5269 22.0402 25.2117 21.6099 25.939L21.5978 28.7693C21.5978 29.0905 21.5917 29.5269 21.3675 29.9147C21.2099 30.1814 21.016 30.436 20.5978 30.436Z" fill="#1D222B"/>
<path d="M28.0485 13.0617H28C22.8728 12.5223 22.1637 12.3647 18.1576 11.292C18.0874 11.2731 18.0229 11.237 17.97 11.187C17.9171 11.137 17.8775 11.0747 17.8547 11.0056C17.8318 10.9365 17.8265 10.8628 17.8392 10.7911C17.8519 10.7195 17.8822 10.6521 17.9273 10.595L23.3394 3.70411C23.3749 3.65833 23.4192 3.62007 23.4697 3.59157C23.5201 3.56308 23.5757 3.54492 23.6333 3.53815C23.6908 3.53138 23.7491 3.53613 23.8048 3.55214C23.8605 3.56815 23.9125 3.59509 23.9576 3.63139C24.1516 3.7829 24.1819 4.06169 24.0303 4.24957L19.0303 10.6132C22.4243 11.5162 23.2667 11.6738 27.8667 12.1587C29.8 10.0253 30.891 8.61926 32.5213 6.51623C32.9213 6.00108 33.3576 5.44351 33.8425 4.81926C33.994 4.62533 34.2667 4.59502 34.4607 4.74654C34.6546 4.89805 34.6849 5.17684 34.5334 5.36472C34.0485 5.9829 33.6182 6.54048 33.2122 7.05563C31.5273 9.22533 30.4122 10.6617 28.3637 12.9162C28.291 13.0071 28.1697 13.0617 28.0485 13.0617ZM10.3758 22.4738C10.1334 22.4738 9.87883 22.4435 9.6061 22.389C8.46671 22.1405 7.70913 21.4738 7.84853 20.8314C7.92126 20.492 8.22429 20.2374 8.69701 20.1223C9.09701 20.0253 9.59398 20.0253 10.097 20.1344C10.6 20.2435 11.0546 20.4435 11.3758 20.6981C11.7576 21.0011 11.9273 21.3526 11.8546 21.692C11.7455 22.1829 11.1516 22.4738 10.3758 22.4738ZM9.32126 20.6374C9.1455 20.6374 8.9758 20.6556 8.83035 20.692C8.60004 20.7526 8.44247 20.8496 8.41823 20.9526C8.36974 21.1708 8.86671 21.6253 9.72732 21.8132C10.5819 21.995 11.2243 21.789 11.2728 21.5647C11.297 21.4617 11.194 21.3041 11.0061 21.1587C10.7576 20.9587 10.3758 20.795 9.96974 20.7102C9.7455 20.6617 9.52732 20.6374 9.32126 20.6374ZM15.0425 23.4799C14.8 23.4799 14.5455 23.4496 14.2728 23.395C13.1334 23.1465 12.3758 22.4799 12.5152 21.8374C12.5879 21.4981 12.891 21.2435 13.3637 21.1284C13.7637 21.0314 14.2606 21.0314 14.7637 21.1405C15.2667 21.2496 15.7213 21.4496 16.0425 21.7041C16.4243 22.0071 16.594 22.3587 16.5213 22.6981C16.4061 23.189 15.8182 23.4799 15.0425 23.4799ZM13.9879 21.6435C13.8122 21.6435 13.6425 21.6617 13.497 21.6981C13.2667 21.7587 13.1091 21.8556 13.0849 21.9587C13.0364 22.1768 13.5334 22.6314 14.394 22.8193C15.2485 23.0011 15.891 22.795 15.9394 22.5708C15.9637 22.4678 15.8607 22.3102 15.6728 22.1647C15.4243 21.9647 15.0425 21.8011 14.6364 21.7162C14.4122 21.6678 14.194 21.6435 13.9879 21.6435ZM19.7031 24.4799C19.4606 24.4799 19.2061 24.4496 18.9334 24.395C17.794 24.1465 17.0364 23.4799 17.1758 22.8374C17.3152 22.195 18.2788 21.892 19.4182 22.1405C19.9213 22.2496 20.3758 22.4496 20.697 22.7041C21.0788 23.0071 21.2485 23.3587 21.1758 23.6981C21.0728 24.189 20.4849 24.4799 19.7031 24.4799ZM18.6607 22.6435C18.1394 22.6435 17.7879 22.8011 17.7516 22.9587C17.7031 23.1768 18.2 23.6314 19.0607 23.8193C19.9152 24.0011 20.5576 23.795 20.6061 23.5708C20.6303 23.4677 20.5273 23.3102 20.3394 23.1647C20.091 22.9647 19.7091 22.8011 19.3031 22.7162C19.0667 22.6678 18.8546 22.6435 18.6607 22.6435ZM13.0667 18.9041C12.8243 18.9041 12.5697 18.8738 12.297 18.8193C11.1576 18.5708 10.4 17.9041 10.5394 17.2617C10.6788 16.6193 11.6425 16.3162 12.7819 16.5647C13.2849 16.6738 13.7394 16.8738 14.0607 17.1284C14.4425 17.4314 14.6122 17.7829 14.5394 18.1223C14.4364 18.6132 13.8485 18.9041 13.0667 18.9041ZM12.0243 17.0678C11.5031 17.0678 11.1516 17.2253 11.1152 17.3829C11.0667 17.6011 11.5637 18.0556 12.4243 18.2435C13.2788 18.4253 13.9213 18.2193 13.9697 18.0011C13.994 17.8981 13.891 17.7405 13.7031 17.595C13.4546 17.395 13.0728 17.2314 12.6667 17.1465C12.4303 17.0859 12.2182 17.0678 12.0243 17.0678ZM17.7334 19.9041C17.491 19.9041 17.2364 19.8738 16.9637 19.8193C15.8243 19.5708 15.0667 18.9041 15.2061 18.2617C15.3455 17.6193 16.3091 17.3162 17.4485 17.5647C17.9516 17.6738 18.4061 17.8738 18.7273 18.1284C19.1091 18.4314 19.2788 18.7829 19.2061 19.1223C19.1031 19.6132 18.5152 19.9041 17.7334 19.9041ZM16.691 18.0677C16.1697 18.0677 15.8182 18.2253 15.7819 18.3829C15.7334 18.6011 16.2303 19.0556 17.091 19.2435C17.9516 19.4253 18.5879 19.2193 18.6364 19.0011C18.6607 18.8981 18.5576 18.7405 18.3697 18.595C18.1213 18.395 17.7394 18.2314 17.3334 18.1465C17.097 18.092 16.8788 18.0677 16.691 18.0677ZM22.4 20.9102C22.1576 20.9102 21.9031 20.8799 21.6303 20.8253C21.1273 20.7162 20.6728 20.5162 20.3516 20.2617C19.9697 19.9587 19.8 19.6071 19.8728 19.2678C20.0122 18.6253 20.9758 18.3223 22.1152 18.5708C22.6182 18.6799 23.0728 18.8799 23.394 19.1344C23.7758 19.4374 23.9455 19.789 23.8728 20.1284C23.7697 20.6193 23.1819 20.9102 22.4 20.9102ZM21.3576 19.0738C20.8364 19.0738 20.4849 19.2314 20.4485 19.389C20.4243 19.492 20.5273 19.6496 20.7152 19.795C20.9637 19.995 21.3455 20.1587 21.7516 20.2435C22.6061 20.4253 23.2485 20.2193 23.297 20.0011C23.3213 19.8981 23.2182 19.7405 23.0303 19.595C22.7819 19.395 22.4 19.2314 21.994 19.1465C21.7637 19.0981 21.5455 19.0738 21.3576 19.0738ZM15.7031 15.3284C15.4546 15.3284 15.2 15.2981 14.9394 15.2435C14.4364 15.1344 13.9819 14.9344 13.6607 14.6799C13.2788 14.3768 13.1091 14.0253 13.1819 13.6859C13.2546 13.3465 13.5576 13.092 14.0303 12.9768C14.4303 12.8799 14.9273 12.8799 15.4303 12.989C16.5697 13.2314 17.3273 13.9041 17.1879 14.5465C17.1152 14.8859 16.8122 15.1405 16.3394 15.2556C16.1394 15.3041 15.9273 15.3284 15.7031 15.3284ZM14.6546 13.492C14.4788 13.492 14.3091 13.5102 14.1637 13.5465C13.9334 13.6071 13.7758 13.7041 13.7516 13.8071C13.7273 13.9102 13.8303 14.0677 14.0182 14.2193C14.2667 14.4193 14.6485 14.5829 15.0546 14.6678C15.4606 14.7526 15.8728 14.7587 16.1879 14.6859C16.4182 14.6253 16.5758 14.5284 16.6 14.4253C16.6485 14.2071 16.1516 13.7526 15.291 13.5647C15.0788 13.5162 14.8546 13.492 14.6546 13.492ZM20.3637 16.3344C20.1152 16.3344 19.8607 16.3041 19.6 16.2496C19.097 16.1405 18.6425 15.9405 18.3213 15.6859C17.9394 15.3829 17.7697 15.0314 17.8425 14.692C17.9152 14.3526 18.2182 14.0981 18.691 13.9829C19.091 13.8859 19.5879 13.8859 20.091 13.995C20.594 14.1041 21.0485 14.3041 21.3697 14.5587C21.7516 14.8617 21.9213 15.2132 21.8485 15.5526C21.7758 15.892 21.4728 16.1465 21 16.2617C20.8061 16.3102 20.594 16.3344 20.3637 16.3344ZM19.3213 14.4981C19.1455 14.4981 18.9758 14.5162 18.8303 14.5526C18.6 14.6132 18.4425 14.7102 18.4182 14.8132C18.394 14.9162 18.497 15.0738 18.6849 15.2253C18.9334 15.4253 19.3152 15.589 19.7213 15.6738C20.1273 15.7587 20.5394 15.7708 20.8546 15.692C21.0849 15.6314 21.2425 15.5344 21.2667 15.4314C21.291 15.3284 21.1879 15.1708 21 15.0193C20.7516 14.8193 20.3697 14.6556 19.9637 14.5708C19.7455 14.5223 19.5213 14.4981 19.3213 14.4981ZM25.0364 17.3405C24.794 17.3405 24.5394 17.3102 24.2667 17.2556C23.1273 17.0132 22.3697 16.3405 22.5091 15.6981C22.6485 15.0556 23.6122 14.7587 24.7516 15.0011C25.2546 15.1102 25.7091 15.3102 26.0303 15.5647C26.4122 15.8678 26.5819 16.2193 26.5091 16.5587C26.4061 17.0496 25.8182 17.3405 25.0364 17.3405ZM23.9879 15.5041C23.4667 15.5041 23.1152 15.6617 23.0788 15.8193C23.0303 16.0374 23.5273 16.492 24.3879 16.6799C25.2485 16.8617 25.8849 16.6556 25.9334 16.4374C25.9576 16.3344 25.8546 16.1768 25.6667 16.0314C25.4182 15.8314 25.0364 15.6677 24.6303 15.5829C24.394 15.5223 24.1819 15.5041 23.9879 15.5041Z" fill="#1D222B"/>
<path d="M31.7493 18.1271C31.7068 18.0846 31.9856 17.7331 32.4462 17.1877C32.9068 16.6422 33.5553 15.9028 34.1796 15.024C34.8038 14.1453 35.2402 13.2786 35.4765 12.618C35.719 11.9574 35.8038 11.521 35.8705 11.5331C35.919 11.5392 35.9432 11.9937 35.7614 12.7089C35.5917 13.424 35.1674 14.3634 34.519 15.2665C33.8765 16.1756 33.1796 16.8907 32.6583 17.3937C32.1432 17.8907 31.7917 18.1695 31.7493 18.1271ZM28.0341 4.93313C28.0705 5.05434 26.925 5.41798 25.7674 6.27858C24.5977 7.12101 23.9068 8.10283 23.7977 8.0301C23.7008 7.98767 24.2705 6.84222 25.519 5.93919C26.7553 5.02404 28.022 4.8301 28.0341 4.93313ZM15.0159 31.9877C15.0583 32.0119 14.9371 32.3998 14.5796 32.9574C14.3977 33.2301 14.1553 33.5513 13.8159 33.8422C13.4826 34.1392 13.022 34.3816 12.5068 34.4907C11.4583 34.6907 10.5493 34.3695 9.95531 34.1453C9.34925 33.8968 9.00986 33.6907 9.02804 33.6422C9.05228 33.5877 9.4341 33.6968 10.0462 33.8665C10.6523 34.018 11.5189 34.2604 12.422 34.0846C13.325 33.9089 13.9493 33.2604 14.3432 32.7877C14.7432 32.2968 14.9614 31.9574 15.0159 31.9877Z" fill="#1D222B"/>
</svg>
