<svg width="26" height="26" viewBox="0 0 26 26" fill="none" xmlns="http://www.w3.org/2000/svg">
<path d="M2.16406 14.547V8.66602H23.8307V14.547C23.8307 18.9243 23.8307 21.113 22.4206 22.4728C21.0103 23.8327 18.7406 23.8327 14.2011 23.8327H11.7937C7.25424 23.8327 4.98452 23.8327 3.57429 22.4728C2.16406 21.113 2.16406 18.9243 2.16406 14.547Z" stroke="#525266" stroke-width="2" stroke-linecap="round" stroke-linejoin="round"/>
<path d="M2.16406 8.66602L3.20573 6.16602C4.01359 4.22713 4.41754 3.25769 5.23629 2.71185C6.05504 2.16602 7.10528 2.16602 9.20573 2.16602H16.7891C18.8895 2.16602 19.9397 2.16602 20.7585 2.71185C21.5773 3.25769 21.9812 4.22713 22.7891 6.16602L23.8307 8.66602" stroke="#525266" stroke-width="2" stroke-linecap="round" stroke-linejoin="round"/>
<path d="M13 8.66602V2.16602" stroke="#525266" stroke-width="2" stroke-linecap="round" stroke-linejoin="round"/>
<path d="M10.8359 13H15.1693" stroke="#525266" stroke-width="2" stroke-linecap="round" stroke-linejoin="round"/>
</svg>
