<svg width="26" height="26" viewBox="0 0 26 26" fill="none" xmlns="http://www.w3.org/2000/svg">
<path d="M11.7773 23.3043L9.5778 21.9988C9.01957 21.6675 8.74045 21.5018 8.43068 21.4922C8.09593 21.4818 7.81187 21.6408 7.20866 21.9988C6.53308 22.3999 5.18974 23.5044 4.32079 22.9777C3.78906 22.6553 3.78906 21.8365 3.78906 20.1989V8.66602C3.78906 5.60188 3.78906 4.06982 4.74097 3.11792C5.69287 2.16602 7.22493 2.16602 10.2891 2.16602H15.7057C18.7698 2.16602 20.3019 2.16602 21.2538 3.11792C22.2057 4.06982 22.2057 5.60188 22.2057 8.66602V20.1989C22.2057 21.8365 22.2057 22.6553 21.674 22.9777C20.8051 23.5044 19.4618 22.3999 18.7861 21.9988C18.2279 21.6675 17.9488 21.5018 17.639 21.4922C17.3043 21.4818 17.0202 21.6408 16.417 21.9988L14.2174 23.3043C13.6242 23.6565 13.3275 23.8326 12.9974 23.8326C12.6673 23.8326 12.3706 23.6565 11.7773 23.3043Z" stroke="#525266" stroke-width="2" stroke-linecap="round" stroke-linejoin="round"/>
<path d="M16.25 8.66602L9.75 15.166" stroke="#525266" stroke-width="2" stroke-linecap="round" stroke-linejoin="round"/>
<path d="M16.25 15.166H16.2403M9.75972 8.66602H9.75" stroke="#525266" stroke-width="2" stroke-linecap="round" stroke-linejoin="round"/>
</svg>
