<svg width="40" height="40" viewBox="0 0 40 40" fill="none" xmlns="http://www.w3.org/2000/svg">
<path fill-rule="evenodd" clip-rule="evenodd" d="M40 4C40 1.7924 38.2076 0 36 0H4C1.7924 0 0 1.7924 0 4V36C0 38.2076 1.7924 40 4 40H36C38.2076 40 40 38.2076 40 36V4Z" fill="#7742E6"/>
<path fill-rule="evenodd" clip-rule="evenodd" d="M33.4604 9.48242L9.324 15.9498C8.52504 16.1638 7.81905 16.6355 7.31552 17.2917C6.81199 17.9479 6.53906 18.752 6.53906 19.5791V22.111L28.2299 16.299C31.3151 15.4723 33.4604 12.6764 33.4604 9.48242ZM23.1277 20.6566L9.324 24.3554C8.52504 24.5694 7.81905 25.0411 7.31552 25.6973C6.81199 26.3535 6.53906 27.1576 6.53906 27.9847V30.5166L17.8971 27.4732C20.9824 26.6466 23.1277 23.8507 23.1277 20.6567V20.6566Z" fill="white"/>
</svg>
