<svg width="18" height="18" viewBox="0 0 18 18" fill="none" xmlns="http://www.w3.org/2000/svg">
<path d="M3 10.5H16.5" stroke="#414454" stroke-linecap="round" stroke-linejoin="round"/>
<path d="M3.75 16.5L4.44792 15.8021C4.8445 15.4055 5.04278 15.2072 5.29263 15.0945C5.54248 14.9817 5.82235 14.9642 6.3821 14.9293L8.82142 14.7768C10.0203 14.7019 10.6198 14.6644 11.1472 14.4111C11.6748 14.1578 12.0788 13.7133 12.8868 12.8245L15 10.5H12.375L11.0303 11.8447C10.9409 11.9341 10.8961 11.9789 10.8496 12.0183C10.6104 12.2216 10.3134 12.3446 10.0006 12.3701C9.93967 12.375 9.87645 12.375 9.75 12.375M9.75 12.375C9.75 12.0265 9.75 11.8523 9.7212 11.7074C9.60285 11.1123 9.1377 10.6471 8.54265 10.5288C8.39775 10.5 8.22353 10.5 7.875 10.5H7.28887C6.50509 10.5 6.1132 10.5 5.74571 10.5945C5.47199 10.6649 5.20959 10.7735 4.96628 10.9173C4.63963 11.1104 4.36252 11.3875 3.80831 11.9417L1.5 14.25M9.75 12.375H7.125" stroke="#414454" stroke-linecap="round" stroke-linejoin="round"/>
<path d="M3.75 8.625C3.75 5.31128 6.43628 2.625 9.75 2.625M9.75 2.625C13.0637 2.625 15.75 5.31128 15.75 8.625M9.75 2.625V1.5" stroke="#414454" stroke-linecap="round" stroke-linejoin="round"/>
</svg>
