<svg width="28" height="40" viewBox="0 0 28 40" fill="none" xmlns="http://www.w3.org/2000/svg">
<g clip-path="url(#clip0_6753_1171)">
<path fill-rule="evenodd" clip-rule="evenodd" d="M18.2294 0.650281C16.8945 0.22992 15.4746 0 14.0001 0C9.69798 0 5.84799 1.9386 3.28125 4.98409L9.89516 10.5307L18.2293 0.650161L18.2294 0.650281Z" fill="#1A73E8"/>
<path fill-rule="evenodd" clip-rule="evenodd" d="M3.27963 4.98438C1.23474 7.40994 0 10.5401 0 13.9546C0 16.5797 0.524856 18.7059 1.38642 20.6113L9.89354 10.531L3.27963 4.98438Z" fill="#EA4335"/>
<path fill-rule="evenodd" clip-rule="evenodd" d="M14.0025 8.6196C16.9606 8.6196 19.3574 11.0088 19.3574 13.9576C19.3574 15.2701 18.881 16.4738 18.0923 17.4023C18.0923 17.4023 22.3216 12.388 26.4264 7.52472C24.7304 4.27355 21.7906 1.77239 18.2348 0.650391L9.89453 10.531C10.8776 9.3606 12.3521 8.6196 14.0025 8.6196Z" fill="#4285F4"/>
<path fill-rule="evenodd" clip-rule="evenodd" d="M14.0018 19.2919C11.0437 19.2919 8.64695 16.9027 8.64695 13.9539C8.64695 12.6504 9.11715 11.4558 9.89384 10.5273L1.38672 20.6106C2.83994 23.8255 5.25802 26.4053 7.74892 29.6563L18.0885 17.4017C17.1085 18.557 15.6401 19.2919 14.0018 19.2919Z" fill="#FBBC04"/>
<path fill-rule="evenodd" clip-rule="evenodd" d="M17.8833 33.0025C22.5525 25.7229 27.9984 22.4173 27.9984 13.9551C27.9984 11.6354 27.428 9.44887 26.4238 7.52539L7.75 29.6576C8.54186 30.692 9.33974 31.7928 10.1194 33.0056C12.9592 37.3789 12.1703 40.0009 14.0029 40.0009C15.8293 40.0009 15.0435 37.3758 17.8833 33.0025Z" fill="#34A853"/>
</g>
<defs>
<clipPath id="clip0_6753_1171">
<rect width="28" height="40" fill="white"/>
</clipPath>
</defs>
</svg>
