<svg width="26" height="26" viewBox="0 0 26 26" fill="none" xmlns="http://www.w3.org/2000/svg">
<path d="M16.25 10.291C16.25 12.086 14.795 13.541 13 13.541C11.205 13.541 9.75 12.086 9.75 10.291C9.75 8.49609 11.205 7.04102 13 7.04102C14.795 7.04102 16.25 8.49609 16.25 10.291Z" stroke="#525266" stroke-width="1.625"/>
<path d="M13 2.16602C17.397 2.16602 21.125 5.87971 21.125 10.3852C21.125 14.9623 17.3364 18.1744 13.8369 20.3586C13.5819 20.5054 13.2935 20.5827 13 20.5827C12.7065 20.5827 12.4181 20.5054 12.1631 20.3586C8.67019 18.1531 4.875 14.9782 4.875 10.3852C4.875 5.87971 8.60297 2.16602 13 2.16602Z" stroke="#525266" stroke-width="1.625"/>
<path d="M19.5 21.666C19.5 22.8627 16.5898 23.8327 13 23.8327C9.41015 23.8327 6.5 22.8627 6.5 21.666" stroke="#525266" stroke-width="1.625" stroke-linecap="round"/>
</svg>
