<svg width="20" height="20" viewBox="0 0 20 20" fill="none" xmlns="http://www.w3.org/2000/svg">
<path d="M6.66797 13.3333L13.9347 12.7277C16.2085 12.5383 16.7189 12.0417 16.9709 9.77408L17.5013 5" stroke="#141B34" stroke-width="1.25" stroke-linecap="round"/>
<path d="M5 5H18.3333" stroke="#141B34" stroke-width="1.25" stroke-linecap="round"/>
<path d="M4.9987 18.3333C5.91917 18.3333 6.66536 17.5871 6.66536 16.6667C6.66536 15.7462 5.91917 15 4.9987 15C4.07822 15 3.33203 15.7462 3.33203 16.6667C3.33203 17.5871 4.07822 18.3333 4.9987 18.3333Z" stroke="#141B34" stroke-width="1.25"/>
<path d="M14.1667 18.3333C15.0871 18.3333 15.8333 17.5871 15.8333 16.6667C15.8333 15.7462 15.0871 15 14.1667 15C13.2462 15 12.5 15.7462 12.5 16.6667C12.5 17.5871 13.2462 18.3333 14.1667 18.3333Z" stroke="#141B34" stroke-width="1.25"/>
<path d="M6.66797 16.6665H12.5013" stroke="#141B34" stroke-width="1.25" stroke-linecap="round"/>
<path d="M1.66797 1.6665H2.47297C3.2602 1.6665 3.94642 2.187 4.13735 2.92895L6.61674 12.5636C6.74203 13.0505 6.6348 13.5663 6.32484 13.9678L5.52808 14.9998" stroke="#141B34" stroke-width="1.25" stroke-linecap="round"/>
</svg>
