<svg width="50" height="50" viewBox="0 0 50 50" fill="none" xmlns="http://www.w3.org/2000/svg">
<circle opacity="0.1" cx="25" cy="25" r="25" fill="#5D5DFF"/>
<circle opacity="0.1" cx="25" cy="25" r="25" fill="#5D5DFF"/>
<path fill-rule="evenodd" clip-rule="evenodd" d="M30.4391 34.5634C30.8191 35.1846 31.4188 35.6568 32.1301 35.8719C32.4055 35.9552 32.6975 36 33 36C34.6569 36 36 34.6569 36 33C36 32.6975 35.9552 32.4055 35.8719 32.1301C35.6568 31.4188 35.1846 30.8191 34.5634 30.4391C34.1081 30.1605 33.5728 30 33 30C31.3431 30 30 31.3431 30 33C30 33.5728 30.1605 34.1081 30.4391 34.5634ZM35.3941 28.6094C34.6831 28.2209 33.8674 28 33 28C30.2386 28 28 30.2386 28 33C28 33.8674 28.2209 34.6831 28.6094 35.3941C27.4788 35.7867 26.2643 36 25 36C18.9249 36 14 31.0751 14 25C14 18.9249 18.9249 14 25 14C31.0751 14 36 18.9249 36 25C36 26.2643 35.7867 27.4788 35.3941 28.6094ZM37.0025 30.0028C37.6451 28.4629 38 26.7729 38 25C38 17.8203 32.1797 12 25 12C17.8203 12 12 17.8203 12 25C12 32.1797 17.8203 38 25 38C26.7729 38 28.4629 37.6451 30.0028 37.0025C30.838 37.6289 31.8757 38 33 38C35.7614 38 38 35.7614 38 33C38 31.8757 37.6289 30.838 37.0025 30.0028Z" fill="#7E68EE"/>
</svg>
