<svg width="40" height="40" viewBox="0 0 40 40" fill="none" xmlns="http://www.w3.org/2000/svg">
<g clip-path="url(#clip0_6753_1362)">
<path d="M40 19.9994C40 31.0417 31.0455 39.993 20 39.993C16.5368 39.993 13.2792 39.1134 10.4388 37.5648C4.2196 34.1742 0 27.5797 0 19.9994C0 8.95737 8.9543 0.00585938 19.9998 0.00585938C31.0455 0.00585938 40 8.95737 40 19.9994Z" fill="#20B276"/>
<path d="M27.9785 25.6892C25.862 27.8692 23.2931 28.9601 20.2729 28.9601C18.4295 28.9601 16.7168 28.6483 15.1113 27.7424L15.0919 39.3507L14.9398 39.3097L14.8456 39.2856L14.7345 39.2251L14.682 39.1303L14.6338 39.0234L14.6873 38.9563L9.39062 32.6447L9.39217 17.7247C9.39217 14.6159 10.4504 11.9756 12.5672 9.80332C14.6836 7.63089 17.2522 6.54492 20.2729 6.54492C23.2931 6.54492 25.8618 7.63476 27.9785 9.81523C30.0949 11.9954 31.1535 14.6412 31.1535 17.7524C31.1535 20.8639 30.0949 23.5092 27.9785 25.6892ZM23.9382 13.9736C22.9333 12.9375 21.7114 12.4197 20.2729 12.4197C18.8338 12.4197 17.612 12.9375 16.6073 13.9736C15.6023 15.0096 15.0998 16.269 15.0998 17.7527C15.0998 19.236 15.6022 20.4954 16.6073 21.5313C17.612 22.5676 18.8338 23.0857 20.2729 23.0857C21.7114 23.0857 22.9333 22.5676 23.9382 21.5313C24.9432 20.4954 25.4457 19.236 25.4457 17.7527C25.4457 16.269 24.9432 15.0095 23.9382 13.9736Z" fill="#147F52"/>
<path d="M27.56 25.2768C25.4432 27.4578 22.8744 28.5487 19.8538 28.5487C18.0104 28.5487 16.2861 28.0955 14.6807 27.1894L14.679 39.2861C14.679 39.2861 14.2882 39.1786 13.7797 39.0144C13.6543 38.9739 13.5276 38.9305 13.395 38.8837C13.3319 38.8612 13.3011 38.8481 13.2362 38.8294C13.0698 38.7816 12.8589 38.689 12.6963 38.6259C12.1502 38.4133 11.7077 38.2108 11.697 38.2058C11.6863 38.2006 10.1231 37.4552 9.9468 37.3451C9.78892 37.2465 9.64837 37.1693 9.52791 37.0829C9.48942 37.0554 9.46034 37.0357 9.42386 37.0106C9.13748 36.8139 8.97744 36.7008 8.97744 36.7008L8.97266 17.3102C8.97266 14.2002 10.0309 11.5591 12.1479 9.38635C14.2646 7.21311 16.8332 6.12695 19.854 6.12695C22.8746 6.12695 25.4432 7.21713 27.5602 9.39825C29.6767 11.5791 30.7355 14.2257 30.7355 17.3377C30.7351 20.4497 29.6765 23.096 27.56 25.2768ZM23.5194 13.5576C22.5143 12.5212 21.2926 12.0032 19.8537 12.0032C18.4146 12.0032 17.1927 12.5212 16.188 13.5576C15.1829 14.5939 14.6805 15.8537 14.6805 17.3377C14.6805 18.8215 15.1829 20.0814 16.188 21.1175C17.1927 22.1544 18.4146 22.6725 19.8537 22.6725C21.2924 22.6725 22.5143 22.1544 23.5194 21.1175C24.5242 20.0814 25.0271 18.8215 25.0271 17.3377C25.0271 15.8537 24.5242 14.5939 23.5194 13.5576Z" fill="white"/>
</g>
<defs>
<clipPath id="clip0_6753_1362">
<rect width="40" height="40" fill="white"/>
</clipPath>
</defs>
</svg>
