<svg width="26" height="26" viewBox="0 0 26 26" fill="none" xmlns="http://www.w3.org/2000/svg">
<path d="M21.1276 18.9583C21.1276 20.4541 19.915 21.6667 18.4193 21.6667C16.9235 21.6667 15.7109 20.4541 15.7109 18.9583C15.7109 17.4626 16.9235 16.25 18.4193 16.25C19.915 16.25 21.1276 17.4626 21.1276 18.9583Z" stroke="#525266" stroke-width="2" stroke-linecap="round" stroke-linejoin="round"/>
<path d="M10.2917 18.9583C10.2917 20.4541 9.0791 21.6667 7.58333 21.6667C6.08756 21.6667 4.875 20.4541 4.875 18.9583C4.875 17.4626 6.08756 16.25 7.58333 16.25C9.0791 16.25 10.2917 17.4626 10.2917 18.9583Z" stroke="#525266" stroke-width="2" stroke-linecap="round" stroke-linejoin="round"/>
<path d="M15.7057 18.959H10.2891M16.2474 16.7923V7.58398C16.2474 6.05192 16.2474 5.28589 15.7715 4.80994C15.2955 4.33398 14.5294 4.33398 12.9974 4.33398H5.41406C3.882 4.33398 3.11597 4.33398 2.64001 4.80994C2.16406 5.28589 2.16406 6.05192 2.16406 7.58398V16.2507C2.16406 17.2631 2.16406 17.7694 2.38177 18.1465C2.52439 18.3935 2.72953 18.5987 2.97656 18.7412C3.35365 18.959 3.85989 18.959 4.8724 18.959M16.7891 7.04232H18.7406C19.6394 7.04232 20.0888 7.04232 20.4613 7.25324C20.8338 7.46417 21.0651 7.84951 21.5275 8.6202L23.3676 11.6871C23.5977 12.0706 23.7128 12.2625 23.7718 12.4753C23.8307 12.6882 23.8307 12.9118 23.8307 13.3592V16.2507C23.8307 17.2631 23.8307 17.7694 23.613 18.1465C23.4704 18.3935 23.2652 18.5987 23.0182 18.7412C22.6411 18.959 22.1349 18.959 21.1224 18.959" stroke="#525266" stroke-width="2" stroke-linecap="round" stroke-linejoin="round"/>
<path d="M7.03906 7.58398V11.9171M11.3724 7.58398V11.9171" stroke="#525266" stroke-width="2" stroke-linecap="round" stroke-linejoin="round"/>
</svg>
