<svg width="26" height="26" viewBox="0 0 26 26" fill="none" xmlns="http://www.w3.org/2000/svg">
<path d="M2.70703 13.0007C2.70703 8.14912 2.70703 5.72335 4.21421 4.21616C5.7214 2.70898 8.14716 2.70898 12.9987 2.70898C17.8502 2.70898 20.276 2.70898 21.7832 4.21616C23.2904 5.72335 23.2904 8.14912 23.2904 13.0007C23.2904 17.8521 23.2904 20.2779 21.7832 21.7852C20.276 23.2923 17.8502 23.2923 12.9987 23.2923C8.14716 23.2923 5.7214 23.2923 4.21421 21.7852C2.70703 20.2779 2.70703 17.8521 2.70703 13.0007Z" stroke="#525266" stroke-width="1.625"/>
<path d="M2.70703 9.75H23.2904" stroke="#525266" stroke-width="1.625" stroke-linejoin="round"/>
<path d="M7.58203 6.5H7.59101" stroke="#525266" stroke-width="2.16667" stroke-linecap="round" stroke-linejoin="round"/>
<path d="M11.918 6.5H11.927" stroke="#525266" stroke-width="2.16667" stroke-linecap="round" stroke-linejoin="round"/>
<path d="M8.66797 14.084L9.99672 15.2293C10.5553 15.7107 10.8346 15.9515 10.8346 16.2507C10.8346 16.5498 10.5553 16.7906 9.99672 17.272L8.66797 18.4173" stroke="#525266" stroke-width="1.625" stroke-linecap="round" stroke-linejoin="round"/>
<path d="M13 18.416H17.3333" stroke="#525266" stroke-width="1.625" stroke-linecap="round" stroke-linejoin="round"/>
</svg>
