<svg width="26" height="26" viewBox="0 0 26 26" fill="none" xmlns="http://www.w3.org/2000/svg">
<path d="M21.684 2.16602C20.4778 2.16602 19.5 5.07616 19.5 8.66602H21.684C22.7366 8.66602 23.2628 8.66602 23.5886 8.30261C23.9145 7.9392 23.8577 7.46062 23.7443 6.50348C23.4449 3.97673 22.6355 2.16602 21.684 2.16602Z" stroke="#525266" stroke-width="1.625"/>
<path d="M19.5013 8.7248V20.199C19.5013 21.8366 19.5013 22.6554 19.0008 22.9777C18.183 23.5045 16.9187 22.3999 16.2828 21.9989C15.7574 21.6675 15.4948 21.5019 15.2032 21.4924C14.8881 21.482 14.6208 21.6409 14.0531 21.9989L11.983 23.3044C11.4245 23.6565 11.1453 23.8327 10.8346 23.8327C10.5239 23.8327 10.2447 23.6565 9.6863 23.3044L7.61619 21.9989C7.0908 21.6675 6.8281 21.5019 6.53654 21.4924C6.2215 21.482 5.95414 21.6409 5.38641 21.9989C4.75058 22.3999 3.48624 23.5045 2.66841 22.9777C2.16797 22.6554 2.16797 21.8366 2.16797 20.199V8.7248C2.16797 5.63295 2.16797 4.08704 3.11987 3.12653C4.07178 2.16602 5.60384 2.16602 8.66797 2.16602H21.668" stroke="#525266" stroke-width="1.625" stroke-linecap="round" stroke-linejoin="round"/>
<path d="M6.5 6.5H15.1667" stroke="#525266" stroke-width="1.625" stroke-linecap="round" stroke-linejoin="round"/>
<path d="M8.66667 10.834H6.5" stroke="#525266" stroke-width="1.625" stroke-linecap="round" stroke-linejoin="round"/>
<path d="M13.543 11.7819C12.6455 11.7819 11.918 12.4185 11.918 13.2038C11.918 13.9891 12.6455 14.6257 13.543 14.6257C14.4404 14.6257 15.168 15.2622 15.168 16.0475C15.168 16.8328 14.4404 17.4694 13.543 17.4694M13.543 11.7819C14.2505 11.7819 14.8524 12.1775 15.0755 12.7298M13.543 11.7819V10.834M13.543 17.4694C12.8354 17.4694 12.2335 17.0738 12.0105 16.5215M13.543 17.4694V18.4173" stroke="#525266" stroke-width="1.625" stroke-linecap="round"/>
</svg>
