<svg width="18" height="18" viewBox="0 0 18 18" fill="none" xmlns="http://www.w3.org/2000/svg">
<path d="M9 7.125C13.1421 7.125 16.5 6.11764 16.5 4.875C16.5 3.63236 13.1421 2.625 9 2.625C4.85786 2.625 1.5 3.63236 1.5 4.875C1.5 6.11764 4.85786 7.125 9 7.125Z" stroke="#414454"/>
<path d="M9 15.375C9.6213 15.375 10.1923 15.1913 10.6428 14.8841C10.858 14.7374 10.9432 14.4315 10.8142 14.1865C10.555 13.6946 9.9981 13.125 9 13.125C8.0019 13.125 7.44492 13.6946 7.18586 14.1865C7.05679 14.4315 7.14193 14.7374 7.3572 14.8841C7.80765 15.1913 8.3787 15.375 9 15.375Z" stroke="#414454" stroke-linejoin="round"/>
<path d="M9 13.125V7.125" stroke="#414454" stroke-linecap="round" stroke-linejoin="round"/>
</svg>
