<svg width="26" height="26" viewBox="0 0 26 26" fill="none" xmlns="http://www.w3.org/2000/svg">
<path d="M4.21293 10.4682C4.75942 10.8333 5.52017 10.8333 7.04167 10.8333C8.56318 10.8333 9.32392 10.8333 9.87041 10.4682C10.107 10.3101 10.3101 10.107 10.4682 9.8704C10.8333 9.32391 10.8333 8.56317 10.8333 7.04167C10.8333 5.52017 10.8333 4.75942 10.4682 4.21293C10.3101 3.97635 10.107 3.77323 9.87041 3.61515C9.32392 3.25 8.56318 3.25 7.04167 3.25C5.52017 3.25 4.75942 3.25 4.21293 3.61515C3.97635 3.77323 3.77323 3.97635 3.61516 4.21293C3.25 4.75942 3.25 5.52017 3.25 7.04167C3.25 8.56317 3.25 9.32391 3.61516 9.8704C3.77323 10.107 3.97635 10.3101 4.21293 10.4682Z" stroke="#525266" stroke-width="1.625" stroke-linejoin="round"/>
<path d="M16.1308 10.4682C16.6774 10.8333 17.4381 10.8333 18.9596 10.8333C20.4811 10.8333 21.2419 10.8333 21.7883 10.4682C22.0249 10.3101 22.2281 10.107 22.3861 9.8704C22.7513 9.32391 22.7513 8.56317 22.7513 7.04167C22.7513 5.52017 22.7513 4.75942 22.3861 4.21293C22.2281 3.97635 22.0249 3.77323 21.7883 3.61515C21.2419 3.25 20.4811 3.25 18.9596 3.25C17.4381 3.25 16.6774 3.25 16.1308 3.61515C15.8943 3.77323 15.6912 3.97635 15.5331 4.21293C15.168 4.75942 15.168 5.52017 15.168 7.04167C15.168 8.56317 15.168 9.32391 15.5331 9.8704C15.6912 10.107 15.8943 10.3101 16.1308 10.4682Z" stroke="#525266" stroke-width="1.625" stroke-linejoin="round"/>
<path d="M4.21293 22.3842C4.75942 22.7494 5.52017 22.7493 7.04167 22.7493C8.56318 22.7493 9.32392 22.7494 9.87041 22.3842C10.107 22.2261 10.3101 22.023 10.4682 21.7864C10.8333 21.2399 10.8333 20.4792 10.8333 18.9577C10.8333 17.4361 10.8333 16.6754 10.4682 16.129C10.3101 15.8924 10.107 15.6893 9.87041 15.5312C9.32392 15.166 8.56318 15.166 7.04167 15.166C5.52017 15.166 4.75942 15.166 4.21293 15.5312C3.97635 15.6893 3.77323 15.8924 3.61516 16.129C3.25 16.6754 3.25 17.4361 3.25 18.9577C3.25 20.4792 3.25 21.2399 3.61516 21.7864C3.77323 22.023 3.97635 22.2261 4.21293 22.3842Z" stroke="#525266" stroke-width="1.625" stroke-linejoin="round"/>
<path d="M16.1308 22.3842C16.6774 22.7494 17.4381 22.7493 18.9596 22.7493C20.4811 22.7493 21.2419 22.7494 21.7883 22.3842C22.0249 22.2261 22.2281 22.023 22.3861 21.7864C22.7513 21.2399 22.7513 20.4792 22.7513 18.9577C22.7513 17.4361 22.7513 16.6754 22.3861 16.129C22.2281 15.8924 22.0249 15.6893 21.7883 15.5312C21.2419 15.166 20.4811 15.166 18.9596 15.166C17.4381 15.166 16.6774 15.166 16.1308 15.5312C15.8943 15.6893 15.6912 15.8924 15.5331 16.129C15.168 16.6754 15.168 17.4361 15.168 18.9577C15.168 20.4792 15.168 21.2399 15.5331 21.7864C15.6912 22.023 15.8943 22.2261 16.1308 22.3842Z" stroke="#525266" stroke-width="1.625" stroke-linejoin="round"/>
</svg>
