<svg width="40" height="40" viewBox="0 0 40 40" fill="none" xmlns="http://www.w3.org/2000/svg">
<path fill-rule="evenodd" clip-rule="evenodd" d="M12.2006 12.084H27.7969C29.2274 12.084 30.3785 12.084 31.3125 12.162C32.2747 12.2424 33.1129 12.4118 33.8904 12.8116C34.8212 13.2902 35.6204 13.985 36.2137 14.8385C36.7127 15.5564 36.9757 16.3583 37.1567 17.2833C37.3314 18.1763 37.4464 19.2847 37.5882 20.651L37.601 20.7743C37.7714 22.4148 37.9085 23.7368 37.9152 24.8062C37.9219 25.907 37.7947 26.8807 37.3374 27.7762C36.8005 28.8273 35.9722 29.7058 34.9524 30.3173C34.0907 30.8342 33.1187 31.0492 31.9932 31.1512C31.3262 31.2117 30.5577 31.2353 29.6724 31.2447C29.7657 31.6713 29.8435 32.056 29.8984 32.4003C30.0005 33.0415 30.0502 33.6887 29.9217 34.3457C29.636 35.8077 28.7342 37.101 27.4075 37.8032C26.7975 38.1262 26.154 38.2372 25.5339 38.287C24.9407 38.3345 24.2147 38.3345 23.3769 38.3345H16.6205C15.7826 38.3345 15.0566 38.3345 14.4634 38.287C13.8432 38.2372 13.1998 38.1262 12.5897 37.8032C11.2632 37.101 10.3613 35.8077 10.0756 34.3457C9.94718 33.6887 9.99678 33.0415 10.0989 32.4003C10.1538 32.056 10.2315 31.6713 10.325 31.2447C9.43978 31.2353 8.67121 31.2117 8.0042 31.1512C6.87876 31.0492 5.90678 30.8342 5.04503 30.3173C4.02511 29.7058 3.19686 28.8273 2.66006 27.7762C2.20273 26.8807 2.07556 25.907 2.08228 24.8062C2.08881 23.7368 2.2261 22.4145 2.39646 20.7738L2.40916 20.6513C2.55103 19.2848 2.6661 18.1765 2.84073 17.2833C3.02165 16.3583 3.28465 15.5564 3.78375 14.8385C4.3771 13.985 5.17621 13.2902 6.10701 12.8116C6.88455 12.4118 7.7227 12.2424 8.68491 12.162C9.6188 12.084 10.7701 12.084 12.2006 12.084ZM16.6842 28.3345C15.4057 28.3345 15.2034 28.3602 15.068 28.4107C14.793 28.5133 14.5285 28.7242 14.3387 29.041C14.2273 29.2268 14.1421 29.5073 13.8375 30.8293C13.6158 31.7915 13.4695 32.4307 13.3907 32.9248C13.3133 33.4112 13.3282 33.6102 13.347 33.7063C13.4538 34.2525 13.7753 34.6593 14.1493 34.8573C14.1769 34.8718 14.2985 34.9297 14.73 34.9643C15.1737 34.9998 15.7644 35.0012 16.6842 35.0012H23.3132C24.2329 35.0012 24.8237 34.9998 25.2672 34.9643C25.6989 34.9297 25.8204 34.8718 25.848 34.8573C26.222 34.6593 26.5435 34.2525 26.6504 33.7063C26.669 33.6102 26.684 33.4112 26.6065 32.9248C26.5279 32.4307 26.3815 31.7915 26.1599 30.8293C25.8552 29.5073 25.77 29.2268 25.6587 29.041C25.4689 28.7242 25.2044 28.5133 24.9292 28.4107C24.7939 28.3602 24.5917 28.3345 23.3132 28.3345H16.6842ZM28.332 20.0007C28.332 19.0802 29.0749 18.334 29.9912 18.334H30.0062C30.9225 18.334 31.6654 19.0802 31.6654 20.0007C31.6654 20.9212 30.9225 21.6673 30.0062 21.6673H29.9912C29.0749 21.6673 28.332 20.9212 28.332 20.0007Z" fill="#6B7280"/>
<path opacity="0.4" d="M21.7564 2.08399C23.2539 2.08394 24.5025 2.0839 25.4937 2.21719C26.54 2.35785 27.4847 2.6673 28.2439 3.42642C29.003 4.18554 29.3124 5.1302 29.453 6.17652C29.526 6.71964 29.559 7.8403 29.574 8.9889C29.5802 9.46617 29.5834 9.70479 29.4362 9.8536C29.289 10.0024 29.0474 10.002 28.5644 10.0011C28.3395 10.0006 28.1104 10.0007 27.877 10.0007H12.1288C11.8955 10.0007 11.6663 10.0006 11.4416 10.0011C10.9585 10.002 10.7169 10.0024 10.5697 9.8536C10.4226 9.70479 10.4257 9.46617 10.4319 8.9889C10.4468 7.8403 10.4798 6.71964 10.5528 6.17652C10.6935 5.1302 11.0029 4.18554 11.762 3.42642C12.5212 2.6673 13.4658 2.35785 14.5122 2.21719C15.5034 2.0839 16.7522 2.08394 18.2495 2.08399H21.7564Z" fill="#141B34"/>
</svg>
