<svg width="26" height="26" viewBox="0 0 26 26" fill="none" xmlns="http://www.w3.org/2000/svg">
<path d="M9.0749 3.25C8.84317 3.33659 8.61526 3.43105 8.39151 3.53303M22.4454 17.6595C22.5561 17.4199 22.6581 17.1754 22.7512 16.9265M20.0415 20.9784C20.2276 20.8048 20.4074 20.6246 20.5805 20.4382M16.5425 23.1533C16.7528 23.074 16.9598 22.9883 17.1635 22.8964M13.1702 23.8267C12.92 23.8354 12.6682 23.8354 12.4179 23.8267M8.43744 22.9021C8.6333 22.9902 8.83233 23.0726 9.03429 23.149M5.06311 20.4975C5.21119 20.6545 5.364 20.8069 5.52131 20.9547M2.85327 16.9699C2.93439 17.184 3.02224 17.395 3.11655 17.6023M2.17323 13.5474C2.1662 13.322 2.16622 13.0951 2.17323 12.8693M2.84542 9.46523C2.92511 9.25345 3.01138 9.04489 3.10396 8.83978M5.0452 5.93583C5.20192 5.7689 5.36395 5.60704 5.53106 5.45051" stroke="#525266" stroke-width="1.625" stroke-linecap="round" stroke-linejoin="round"/>
<path d="M14.625 13C14.625 13.8974 13.8974 14.625 13 14.625C12.1026 14.625 11.375 13.8974 11.375 13C11.375 12.1026 12.1026 11.375 13 11.375M14.625 13C14.625 12.1026 13.8974 11.375 13 11.375M14.625 13H17.3333M13 11.375V6.5" stroke="#525266" stroke-width="1.625" stroke-linecap="round"/>
<path d="M23.8333 12.9993C23.8333 7.01626 18.983 2.16602 13 2.16602" stroke="#525266" stroke-width="1.625" stroke-linecap="round"/>
</svg>
