<svg width="26" height="26" viewBox="0 0 26 26" fill="none" xmlns="http://www.w3.org/2000/svg">
<path d="M21.6693 8.66667C21.6693 10.7607 19.9717 12.4583 17.8776 12.4583C15.7835 12.4583 14.0859 10.7607 14.0859 8.66667C14.0859 6.57258 15.7835 4.875 17.8776 4.875C19.9717 4.875 21.6693 6.57258 21.6693 8.66667Z" stroke="#525266" stroke-width="2" stroke-linecap="round" stroke-linejoin="round"/>
<path d="M16.0644 5.33364C15.5723 3.81057 14.1426 2.70898 12.4557 2.70898C10.3616 2.70898 8.66406 4.40657 8.66406 6.50065C8.66406 8.59466 10.3616 10.2923 12.4557 10.2923C13.1104 10.2923 13.7263 10.1264 14.2637 9.83432" stroke="#525266" stroke-width="2" stroke-linecap="round" stroke-linejoin="round"/>
<path d="M4.33594 14.625H6.93033C7.24899 14.625 7.56327 14.6968 7.84829 14.8347L10.0604 15.9051C10.3454 16.043 10.6597 16.1147 10.9784 16.1147H12.1079C13.2003 16.1147 14.0859 16.9717 14.0859 18.0288C14.0859 18.0715 14.0567 18.1091 14.0142 18.1208L11.2616 18.882C10.7678 19.0185 10.239 18.9709 9.77969 18.7486L7.41489 17.6045M14.0859 17.3333L19.0615 15.8046C19.9435 15.5298 20.897 15.8557 21.4495 16.6208C21.849 17.174 21.6863 17.9662 21.1043 18.302L12.9624 22.9997C12.4446 23.2985 11.8336 23.3714 11.2641 23.2024L4.33594 21.1466" stroke="#525266" stroke-width="2" stroke-linecap="round" stroke-linejoin="round"/>
</svg>
