<svg width="40" height="40" viewBox="0 0 40 40" fill="none" xmlns="http://www.w3.org/2000/svg">
<g clip-path="url(#clip0_6600_3640)">
<path d="M19.9781 34.7341C11.8523 34.7341 5.265 28.1467 5.265 20.0211C5.265 11.8953 11.8523 5.30813 19.9781 5.30813C28.1038 5.30813 34.6909 11.8953 34.6909 20.0211C34.6909 28.1467 28.1038 34.7341 19.9781 34.7341ZM19.9781 0.0429688C8.94453 0.0429687 0 8.98766 0 20.0211C0 31.0547 8.94453 39.9991 19.9781 39.9991C31.0116 39.9991 39.9561 31.0547 39.9561 20.0211C39.9561 8.98766 31.0117 0.0429688 19.9781 0.0429688Z" fill="#CF272D"/>
<path d="M20.7984 15.0445C20.7984 12.7505 22.6583 10.8906 24.9525 10.8906C27.2467 10.8906 29.1064 12.7505 29.1064 15.0445C29.1064 17.3389 27.2467 19.1986 24.9525 19.1986C22.6583 19.1986 20.7984 17.3389 20.7984 15.0445ZM20.7984 24.9955C20.7984 22.7014 22.6583 20.8414 24.9525 20.8414C27.2467 20.8414 29.1064 22.7014 29.1064 24.9955C29.1064 27.2897 27.2467 29.1495 24.9525 29.1495C22.6583 29.1495 20.7984 27.2897 20.7984 24.9955ZM10.8477 24.9955C10.8477 22.7014 12.7077 20.8414 15.0017 20.8414C17.2959 20.8414 19.1558 22.7014 19.1558 24.9955C19.1558 27.2897 17.2959 29.1495 15.0017 29.1495C12.7077 29.1495 10.8477 27.2897 10.8477 24.9955ZM10.8477 15.0447C10.8477 12.7505 12.7077 10.8908 15.0017 10.8908C17.2959 10.8908 19.1558 12.7505 19.1558 15.0447C19.1558 17.3391 17.2959 19.1987 15.0017 19.1987C12.7077 19.1987 10.8477 17.3391 10.8477 15.0447Z" fill="#CF272D"/>
</g>
<defs>
<clipPath id="clip0_6600_3640">
<rect width="40" height="40" fill="white"/>
</clipPath>
</defs>
</svg>
